<svg xmlns="http://www.w3.org/2000/svg" viewBox="0 0 515.25 331.75"><defs><style>.a,.e,.i{stroke:#020202;}.a,.b,.d,.e,.f,.g,.i{stroke-miterlimit:10;}.a,.b,.d,.e{stroke-width:0.25px;}.b{fill:#fdfdfd;}.b,.d{stroke:#fdfdfd;}.c{fill:#050505;}.d,.e{fill:none;}.f{fill:#e09b1b;stroke:#c98518;}.g{fill:#fff;stroke:#f0f0f0;}.h{fill:#758985;}.i{stroke-width:5px;}</style></defs><title>MewRename</title><path class="a" d="M51,276c-5.74-2.29-13.7-7-20-7,5.45,0,23-21,28-26,.15-.15-17-2-18-3-2.16-2.16,18-11.6,18-14,0-5.17-15.26-5.35-14-13,.16-1,24-15.47,27-18,15.73-13.3,16-14.36,13.7-33.89a474.69,474.69,0,0,1-3.12-74.9C83.24,70.6,84.73,17.15,102,9c19.51-9.21,69.34,62.6,81.17,78.23,3.56,4.7,11.47,20.2,16.83,22.77s18.37-1.81,23.25-2.38c4.43-.51,10.93.54,14.75-1.75C236.07,107,249.71,90.71,250,91c5.7,5.7,1.15,12.51,8,12,5.28-.39,9.37-13,15-13,2.18,0,1.27,12.86,2.13,13.87,3.12,3.72,15.2,4.27,20.87,5.13,18.35,2.79,17.61-3.57,29.27-18.86,20.4-26.78,42-60.06,69.3-80.21C402.59,4,404.11.19,412,7c5.42,4.68,8.2,20.28,9.92,26.75,5.5,20.71,7.13,41.91,8.08,63.25,1.11,25,1.17,49.95,0,75-1.38,29.64,11.06,13.56,28.5,31,1.2,1.2-14.5,8.24-14.5,10,0,3.62,35.62,12.76,35,14-1.39,2.79-25,6.26-25,9,0,4.95,25.27,17.78,31,17,1.17,10.2-53.46,7.66-61.9,8.08l-153.53,7.64L43,280C42.75,274.66,46,275.55,51,276Z" transform="translate(0.63 -3.25)"/><circle class="b" cx="176.63" cy="203.75" r="51"/><circle class="b" cx="327.13" cy="200.25" r="49.5"/><path class="c" d="M323,176a29.6,29.6,0,0,0-9.69,1.63c6,6.81,4.17,24.31-4.12,29-10.23,5.8-12.93-8.77-11.85-15.95-15.74,26.34,14.74,58.15,41.28,41.79C363.71,217,352.86,176,323,176Z" transform="translate(0.63 -3.25)"/><path class="d" d="M323,176a29.6,29.6,0,0,0-9.69,1.63c6,6.81,4.17,24.31-4.12,29-10.23,5.8-12.93-8.77-11.85-15.95-15.74,26.34,14.74,58.15,41.28,41.79C363.71,217,352.86,176,323,176Z" transform="translate(0.63 -3.25)"/><path class="c" d="M177.5,181l-1.86.07c5.32,7.8,3.09,25.5-6.72,29.12-11.95,4.42-13.26-13.72-11-21.13-22.21,21.74,2.13,62.22,31.42,48.22C216,224.53,208,181,177.5,181Z" transform="translate(0.63 -3.25)"/><path class="e" d="M177.5,181l-1.86.07c5.32,7.8,3.09,25.5-6.72,29.12-11.95,4.42-13.26-13.72-11-21.13-22.21,21.74,2.13,62.22,31.42,48.22C216,224.53,208,181,177.5,181Z" transform="translate(0.63 -3.25)"/><path class="f" d="M237,242c0-5.86,15.59-4.6,19.25-4,10.43,1.71,5.46,9.71.6,16.7-3.52,5.06-4.7,8.4-9.76,5.08C243.43,257.38,237.4,246.16,237,242Z" transform="translate(0.63 -3.25)"/><path class="g" d="M241,243c0-3.51,16.26-3.76,17,1C254.19,244,242.68,245.57,241,243Z" transform="translate(0.63 -3.25)"/><path d="M506.14,260.37c-11.31,1.53-22.79,1.47-34.05,3.09-11.37,1.29-22.73,2.18-34.11,3.14-5.68.48-11.37.93-17.06,1.31l-8.55.56c-1.42.08-2.86.16-4.31.2l-4.27.08c-11.39.25-22.82.46-34.14,1.22-1.42.1-2.82.22-4.2.39l-4.22.59a23.83,23.83,0,0,0-4,.84,12.36,12.36,0,0,0-3.47,1.91,25.71,25.71,0,0,0-3.16,2.62,2.85,2.85,0,0,0-.82,1.2c0,.05,0,.1.15.29l.13.14.09.06.35.19a21.45,21.45,0,0,0,3.88,1.2c1.36.31,2.74.55,4.13.73a38.86,38.86,0,0,0,4.17.35c1.38,0,2.82,0,4.28,0a57.29,57.29,0,0,1,8.61,1L384,283c2.8.48,5.64,1,8.43,1.68,5.59,1.3,11,3,16.47,4.84,2.7.91,5.42,1.76,8.12,2.73s5.36,2,8,3c5.3,2.12,10.57,4.32,15.76,6.71,1.3.61,2.59,1.21,3.84,1.95s2.44,1.44,3.71,2.1l3.81,1.94a26.14,26.14,0,0,1,3.71,2.12,25.16,25.16,0,0,0-3.78-2l-3.88-1.81c-1.28-.62-2.57-1.27-3.79-2s-2.53-1.25-3.84-1.82c-5.23-2.24-10.55-4.3-15.89-6.27-2.67-1-5.35-2-8-2.88s-5.42-1.72-8.14-2.59c-5.44-1.71-10.88-3.35-16.42-4.54-2.78-.61-5.55-1.09-8.38-1.53l-8.43-1.46a56.62,56.62,0,0,0-8.37-.89c-1.4,0-2.81,0-4.28,0s-2.91-.16-4.35-.34-2.88-.42-4.3-.74a22.35,22.35,0,0,1-4.28-1.32,4.28,4.28,0,0,1-.58-.32l-.35-.26-.24-.25a2.28,2.28,0,0,1-.63-1.63,3,3,0,0,1,.55-1.45,7,7,0,0,1,.78-1,28,28,0,0,1,3.4-2.86,14,14,0,0,1,4-2.2,27.08,27.08,0,0,1,4.34-.95l4.25-.61c1.45-.19,2.89-.32,4.32-.42,11.44-.71,22.84-.86,34.26-1.05l4.28-.05c1.4,0,2.81-.11,4.23-.18l8.53-.51,17.07-1.11c11.37-.78,22.77-1.5,34.1-2.59,5.68-.7,11.4-.88,17.09-1.13S500.46,260.93,506.14,260.37Z" transform="translate(0.63 -3.25)"/><path class="h" d="M505.5,260.5c-11.33,1.37-22.81,1.15-34.09,2.61-11.39,1.12-22.76,1.85-34.15,2.65-5.69.39-11.38.76-17.08,1.06l-8.55.44c-1.43.06-2.87.12-4.32.14H403c-11.4.09-22.82.14-34.16.73-1.41.09-2.82.19-4.2.34l-4.23.52a25.22,25.22,0,0,0-4,.79,12.35,12.35,0,0,0-3.5,1.86,26.64,26.64,0,0,0-3.2,2.57,2.83,2.83,0,0,0-.83,1.19s0,.1.15.3l.13.13.08.06.35.2a21.4,21.4,0,0,0,3.87,1.26c1.35.33,2.73.59,4.11.79s2.78.34,4.17.41,2.81,0,4.27.1a57.28,57.28,0,0,1,8.6,1.09l8.4,1.63c2.8.52,5.63,1.1,8.41,1.8,5.57,1.38,11,3.2,16.4,5.08,2.69.94,5.39,1.84,8.08,2.84s5.34,2,8,3.14c5.27,2.2,10.51,4.47,15.66,6.93,1.29.63,2.57,1.25,3.81,2a41.16,41.16,0,0,0,3.68,2.16l3.78,2a24.68,24.68,0,0,1,3.68,2.17,25.17,25.17,0,0,0-3.75-2l-3.85-1.86c-1.28-.64-2.55-1.31-3.76-2.07s-2.52-1.29-3.81-1.88c-5.2-2.32-10.49-4.45-15.81-6.5-2.65-1-5.31-2-8-3s-5.4-1.8-8.11-2.71c-5.41-1.78-10.83-3.5-16.35-4.77-2.77-.65-5.53-1.17-8.35-1.66l-8.41-1.57a56.62,56.62,0,0,0-8.36-1c-1.4-.05-2.81,0-4.28-.08a42.1,42.1,0,0,1-4.35-.4c-1.44-.2-2.87-.46-4.29-.8a22.37,22.37,0,0,1-4.25-1.38,5,5,0,0,1-.58-.33c-.12-.08-.23-.17-.34-.26l-.24-.25a2.3,2.3,0,0,1-.6-1.65,2.85,2.85,0,0,1,.56-1.44,7.7,7.7,0,0,1,.8-.94,28.7,28.7,0,0,1,3.43-2.81,14.2,14.2,0,0,1,4-2.14,27.11,27.11,0,0,1,4.35-.89l4.26-.55c1.45-.16,2.89-.28,4.33-.36,11.45-.54,22.85-.53,34.26-.55h4.28c1.4,0,2.82-.06,4.24-.11l8.54-.39,17.08-.87c11.38-.61,22.79-1.17,34.13-2.09,5.69-.62,11.42-.72,17.11-.9S499.82,261,505.5,260.5Z" transform="translate(0.63 -3.25)"/><path d="M0,334.84A49,49,0,0,1,4.49,332c1.53-.89,3.08-1.74,4.64-2.58q4.66-2.51,9.43-4.87c6.31-3.2,12.86-5.91,19.37-8.66q4.89-2,9.82-4c3.28-1.31,6.57-2.63,9.94-3.77,6.67-2.31,13.31-4.75,20.06-6.92s13.5-4.24,20.43-5.93a100.71,100.71,0,0,1,10.53-2c3.58-.39,7.08-.62,10.62-.86s7.07-.35,10.56-.66c1.76-.16,3.44-.4,5.22-.66s3.54-.42,5.31-.56a70.67,70.67,0,0,0,10.43-1.36A90.34,90.34,0,0,0,160.92,286l.08.18a78.4,78.4,0,0,1-9.92,3.87,69.33,69.33,0,0,1-10.51,1.86c-1.75.22-3.49.47-5.22.74s-3.52.61-5.28.81c-3.55.41-7.08.64-10.6.94s-7.06.52-10.51.92-6.9,1.07-10.33,1.85c-6.84,1.54-13.62,3.62-20.4,5.53-6.74,2.06-13.4,4.41-20.13,6.63-3.34,1.08-6.63,2.35-9.93,3.61s-6.58,2.57-9.86,3.88c-6.57,2.63-13.13,5.21-19.49,8.28q-4.78,2.26-9.5,4.68c-1.57.81-3.14,1.63-4.68,2.49A49.3,49.3,0,0,0,.12,335Z" transform="translate(0.63 -3.25)"/><path class="h" d="M.44,334.42a51.46,51.46,0,0,1,4.49-2.85q2.31-1.32,4.64-2.58,4.68-2.52,9.44-4.88c6.31-3.22,12.87-5.94,19.38-8.7q4.9-2,9.83-4c3.28-1.31,6.58-2.64,9.94-3.78,6.68-2.32,13.32-4.77,20.08-6.95s13.51-4.25,20.44-5.95a103.59,103.59,0,0,1,10.54-2c3.58-.39,7.08-.62,10.63-.86s7.07-.35,10.56-.67c1.76-.15,3.44-.39,5.23-.65s3.54-.43,5.31-.57a69.36,69.36,0,0,0,10.43-1.36,91.23,91.23,0,0,0,10.08-3.18l.08.18a77,77,0,0,1-9.92,3.88,70.88,70.88,0,0,1-10.53,1.87q-2.62.33-5.22.75c-1.7.3-3.52.6-5.28.8-3.55.42-7.08.65-10.6.94s-7.07.53-10.52.93a104.53,104.53,0,0,0-10.33,1.86c-6.85,1.54-13.63,3.63-20.42,5.55s-13.41,4.42-20.14,6.65c-3.35,1.08-6.64,2.36-9.94,3.62s-6.59,2.58-9.87,3.9c-6.57,2.63-13.14,5.22-19.5,8.31-3.19,1.51-6.37,3.08-9.51,4.69q-2.36,1.21-4.68,2.5a49.4,49.4,0,0,0-4.52,2.74Z" transform="translate(0.63 -3.25)"/><path d="M153.37,269c-2.29-1.31-4.55-2.7-6.9-3.9a47.84,47.84,0,0,0-7.31-3L124,257.44a34.65,34.65,0,0,0-3.77-1c-1.28-.25-2.59-.45-3.9-.66s-2.62-.44-3.9-.62-2.61-.32-3.92-.41c-5.24-.39-10.55-.48-15.8-.45-5.26.2-10.55.59-15.84.77-1.32.05-2.65.09-4,.09s-2.61,0-3.93.14c-2.62.19-5.24.5-7.87.81l-3.93.49c-1.32.15-2.63.35-4,.37-2.6.12-5.24.52-7.88.72a33.06,33.06,0,0,1-4,.1l-4-.07-7.93-.16,7.93-.1,4,0a32.41,32.41,0,0,0,3.94-.22c2.63-.25,5.22-.69,7.9-.86,1.29,0,2.6-.26,3.91-.43l3.92-.56c2.63-.37,5.25-.71,7.91-.91,1.32-.12,2.67-.16,4-.17s2.63,0,4-.11c5.27-.21,10.53-.63,15.84-.86,5.32,0,10.6.12,15.9.54,1.33.11,2.65.25,4,.44s2.61.44,3.92.65,2.61.41,3.93.69a35.51,35.51,0,0,1,3.85,1.13l15.07,4.92a47.27,47.27,0,0,1,7.29,3.2C148.93,266.1,151.14,267.55,153.37,269Z" transform="translate(0.63 -3.25)"/><path class="h" d="M153.5,268.5c-2.3-1.31-4.56-2.68-6.91-3.88a48.34,48.34,0,0,0-7.33-2.94l-15.18-4.6a32.56,32.56,0,0,0-3.78-1c-1.28-.25-2.59-.45-3.89-.65s-2.63-.43-3.91-.61-2.61-.3-3.92-.4C103.33,254,98,254,92.78,254c-5.26.22-10.55.63-15.84.83-1.32,0-2.65.1-4,.1s-2.61,0-3.93.15c-2.62.21-5.24.52-7.86.84l-3.94.51a39.74,39.74,0,0,1-4,.38c-2.59.13-5.23.54-7.87.75a33.14,33.14,0,0,1-4,.12l-4-.06-7.93-.13,7.93-.13,4-.06a32.14,32.14,0,0,0,3.93-.23c2.63-.26,5.22-.71,7.91-.89a37.9,37.9,0,0,0,3.9-.45l3.92-.57c2.62-.38,5.25-.73,7.9-.94,1.32-.12,2.67-.16,4-.18s2.63-.06,4-.12c5.28-.23,10.53-.67,15.85-.92,5.32,0,10.6.09,15.9.49,1.32.1,2.65.24,4,.42s2.61.43,3.92.64,2.61.4,3.93.68a33.36,33.36,0,0,1,3.85,1.12l15.1,4.86a47.55,47.55,0,0,1,7.29,3.17C149,265.65,151.26,267.1,153.5,268.5Z" transform="translate(0.63 -3.25)"/><path class="h" d="M351.74,256.68l-.48-.36c3-4,9.14-9.12,15.05-14,2.49-2.08,5.92-5.08,9.23-8,4.64-4.07,9.44-8.27,11.78-10l20-15,.36.48-20,15c-2.32,1.74-7.11,5.94-11.75,10-3.31,2.9-6.73,5.9-9.24,8C360.81,247.64,354.72,252.71,351.74,256.68Z" transform="translate(0.63 -3.25)"/><line class="i" x1="0.13" y1="277.25" x2="515.13" y2="251.25"/></svg>