<?xml version="1.0" encoding="utf-8"?>
<!-- Generator: Adobe Illustrator 23.0.2, SVG Export Plug-In . SVG Version: 6.00 Build 0)  -->
<svg version="1.1" id="图层_1" xmlns="http://www.w3.org/2000/svg" xmlns:xlink="http://www.w3.org/1999/xlink" x="0px" y="0px"
	 viewBox="0 0 200 200" style="enable-background:new 0 0 200 200;" xml:space="preserve">
<style type="text/css">
	.st0{fill:#F44A45;}
</style>
<path class="st0" d="M100,12.5c-48.3,0-87.5,39.2-87.5,87.5c0,48.3,39.2,87.5,87.5,87.5c48.3,0,87.5-39.2,87.5-87.5
	C187.5,51.7,148.3,12.5,100,12.5z M142.5,130.7c1.6,1.6,1.6,4.3,0,5.9l-5.9,5.9c-1.6,1.6-4.3,1.6-5.9,0L100,111.9l-30.7,30.7
	c-1.6,1.6-4.3,1.6-5.9,0l-5.9-5.9c-1.6-1.6-1.6-4.3,0-5.9L88.1,100L57.5,69.3c-1.6-1.6-1.6-4.3,0-5.9l5.9-5.9c1.6-1.6,4.3-1.6,5.9,0
	L100,88.1l30.7-30.7c1.6-1.6,4.3-1.6,5.9,0l5.9,5.9c1.6,1.6,1.6,4.3,0,5.9L111.9,100L142.5,130.7z"/>
</svg>
