<svg xmlns="http://www.w3.org/2000/svg" xmlns:xlink="http://www.w3.org/1999/xlink" viewBox="0 0 515.25 414.17"><defs><style>.a,.c,.e,.h,.j,.l{fill:none;}.b{clip-path:url(#a);}.c,.l{stroke:#020202;}.c,.e,.h,.j,.l{stroke-miterlimit:10;}.c,.e{stroke-width:0.25px;}.d{fill:#fdfdfd;}.e{stroke:#fdfdfd;}.f{fill:#050505;}.g{fill:#e09b1b;}.h{stroke:#c98518;}.i{fill:#fff;}.j{stroke:#f0f0f0;}.k{fill:#758985;}.l{stroke-width:5px;}</style><clipPath id="a" transform="translate(0.63 -50.54)"><rect class="a" y="47.29" width="512" height="336"/></clipPath></defs><title>MewIcon</title><g class="b"><g class="b"><path d="M51,323.29c-5.74-2.29-13.7-7-20-7,5.45,0,23-21,28-26,.15-.15-17-2-18-3-2.16-2.15,18-11.6,18-14,0-5.17-15.26-5.35-14-13,.16-1,24-15.47,27-18C87.73,229,88,227.93,85.7,208.4a474.69,474.69,0,0,1-3.12-74.9c.66-15.61,2.15-69.06,19.42-77.21,19.51-9.21,69.34,62.6,81.17,78.24,3.56,4.69,11.47,20.19,16.83,22.76s18.37-1.81,23.25-2.37c4.43-.52,10.93.53,14.75-1.75-1.93,1.15,11.71-15.17,12-14.88,5.7,5.7,1.15,12.51,8,12,5.28-.39,9.37-13,15-13,2.18,0,1.27,12.87,2.13,13.88,3.12,3.72,15.2,4.26,20.87,5.12,18.35,2.8,17.61-3.57,29.27-18.86,20.4-26.78,42-60.05,69.3-80.21,8-5.92,9.54-9.73,17.43-2.93,5.42,4.68,8.2,20.28,9.92,26.75,5.5,20.72,7.13,41.92,8.08,63.25,1.11,25.05,1.17,50,0,75-1.38,29.64,11.06,13.57,28.5,31,1.2,1.2-14.5,8.24-14.5,10,0,3.62,35.62,12.76,35,14-1.39,2.79-25,6.26-25,9,0,5,25.27,17.78,31,17,1.17,10.21-53.46,7.66-61.9,8.08L269.57,316,43,327.29c-.25-5.34,3-4.45,8-4" transform="translate(0.63 -50.54)"/><path class="c" d="M51,323.29c-5.74-2.29-13.7-7-20-7,5.45,0,23-21,28-26,.15-.15-17-2-18-3-2.16-2.15,18-11.6,18-14,0-5.17-15.26-5.35-14-13,.16-1,24-15.47,27-18C87.73,229,88,227.93,85.7,208.4a474.69,474.69,0,0,1-3.12-74.9c.66-15.61,2.15-69.06,19.42-77.21,19.51-9.21,69.34,62.6,81.17,78.24,3.56,4.69,11.47,20.19,16.83,22.76s18.37-1.81,23.25-2.37c4.43-.52,10.93.53,14.75-1.75-1.93,1.15,11.71-15.17,12-14.88,5.7,5.7,1.15,12.51,8,12,5.28-.39,9.37-13,15-13,2.18,0,1.27,12.87,2.13,13.88,3.12,3.72,15.2,4.26,20.87,5.12,18.35,2.8,17.61-3.57,29.27-18.86,20.4-26.78,42-60.05,69.3-80.21,8-5.92,9.54-9.73,17.43-2.93,5.42,4.68,8.2,20.28,9.92,26.75,5.5,20.72,7.13,41.92,8.08,63.25,1.11,25.05,1.17,50,0,75-1.38,29.64,11.06,13.57,28.5,31,1.2,1.2-14.5,8.24-14.5,10,0,3.62,35.62,12.76,35,14-1.39,2.79-25,6.26-25,9,0,5,25.27,17.78,31,17,1.17,10.21-53.46,7.66-61.9,8.08L269.57,316,43,327.29C42.75,322,46,322.84,51,323.29Z" transform="translate(0.63 -50.54)"/></g><g class="b"><path class="d" d="M227,254.29a51,51,0,1,1-51-51,51,51,0,0,1,51,51" transform="translate(0.63 -50.54)"/><circle class="e" cx="176.63" cy="203.75" r="51"/><path class="d" d="M376,250.79a49.5,49.5,0,1,1-49.5-49.5,49.5,49.5,0,0,1,49.5,49.5" transform="translate(0.63 -50.54)"/><circle class="e" cx="327.13" cy="200.25" r="49.5"/></g><g class="b"><path class="f" d="M323,223.29a29.61,29.61,0,0,0-9.69,1.64c6,6.81,4.17,24.3-4.12,29-10.23,5.79-12.93-8.77-11.85-16-15.74,26.34,14.74,58.15,41.28,41.79,25.09-15.46,14.23-56.48-15.62-56.48" transform="translate(0.63 -50.54)"/><path class="e" d="M323,223.29a29.61,29.61,0,0,0-9.69,1.64c6,6.81,4.17,24.3-4.12,29-10.23,5.79-12.93-8.77-11.85-16-15.74,26.34,14.74,58.15,41.28,41.79C363.71,264.31,352.85,223.29,323,223.29Z" transform="translate(0.63 -50.54)"/></g><g class="b"><path class="f" d="M177.5,228.29l-1.86.07c5.32,7.8,3.09,25.5-6.72,29.12-11.95,4.42-13.26-13.72-11-21.13-22.21,21.74,2.13,62.22,31.42,48.22C216,271.82,208,228.29,177.5,228.29" transform="translate(0.63 -50.54)"/><path class="c" d="M177.5,228.29l-1.86.07c5.32,7.8,3.09,25.5-6.72,29.12-11.95,4.42-13.26-13.72-11-21.13-22.21,21.74,2.13,62.22,31.42,48.22C216,271.82,208,228.29,177.5,228.29Z" transform="translate(0.63 -50.54)"/></g><g class="b"><path class="g" d="M237,289.29c0-5.85,15.59-4.6,19.25-4,10.43,1.72,5.46,9.71.6,16.7-3.52,5.06-4.7,8.4-9.76,5.08-3.66-2.4-9.69-13.62-10.09-17.78" transform="translate(0.63 -50.54)"/><path class="h" d="M237,289.29c0-5.85,15.59-4.6,19.25-4,10.43,1.72,5.46,9.71.6,16.7-3.52,5.06-4.7,8.4-9.76,5.08C243.43,304.67,237.4,293.45,237,289.29Z" transform="translate(0.63 -50.54)"/></g><g class="b"><path class="i" d="M241,290.29c0-3.51,16.26-3.76,17,1-3.81,0-15.32,1.57-17-1" transform="translate(0.63 -50.54)"/><path class="j" d="M241,290.29c0-3.51,16.26-3.76,17,1C254.19,291.29,242.68,292.86,241,290.29Z" transform="translate(0.63 -50.54)"/></g><g class="b"><path d="M506.14,307.66c-11.31,1.53-22.79,1.47-34.05,3.09-11.37,1.29-22.73,2.18-34.1,3.15-5.69.47-11.38.92-17.07,1.3l-8.55.56c-1.42.08-2.86.17-4.31.2l-4.27.08c-11.39.25-22.82.46-34.14,1.22-1.42.11-2.82.22-4.2.39l-4.22.59a26,26,0,0,0-4,.84,12.36,12.36,0,0,0-3.47,1.91,26.65,26.65,0,0,0-3.16,2.62,2.85,2.85,0,0,0-.82,1.2c0,.05,0,.1.15.3l.13.13.09.06.35.19a21.46,21.46,0,0,0,3.88,1.21c1.36.31,2.74.55,4.13.73a41.6,41.6,0,0,0,4.17.34c1.38.05,2.82,0,4.28.05a58.62,58.62,0,0,1,8.61,1l8.43,1.51c2.8.49,5.64,1,8.43,1.68,5.59,1.3,11,3,16.47,4.84,2.7.91,5.42,1.76,8.12,2.73s5.36,2,8,3c5.3,2.12,10.57,4.31,15.76,6.7,1.3.61,2.59,1.21,3.84,2s2.44,1.45,3.71,2.1l3.81,1.94a25.27,25.27,0,0,1,3.71,2.13,24.32,24.32,0,0,0-3.78-2l-3.88-1.81c-1.28-.61-2.57-1.27-3.79-2a42,42,0,0,0-3.83-1.82c-5.24-2.25-10.56-4.3-15.9-6.28-2.67-1-5.35-2-8-2.88s-5.42-1.72-8.14-2.58c-5.44-1.72-10.88-3.35-16.42-4.55-2.78-.61-5.55-1.08-8.38-1.53l-8.43-1.45a55.33,55.33,0,0,0-8.37-.9c-1.4,0-2.81,0-4.28,0a42,42,0,0,1-4.35-.34c-1.44-.18-2.88-.42-4.3-.74a23,23,0,0,1-4.28-1.31c-.19-.1-.37-.19-.58-.32l-.35-.27-.24-.24a2.32,2.32,0,0,1-.63-1.64,3,3,0,0,1,.55-1.45,7,7,0,0,1,.78-.95,29,29,0,0,1,3.4-2.86,14,14,0,0,1,4-2.2,27.08,27.08,0,0,1,4.34-.95l4.25-.61q2.18-.27,4.32-.42c11.44-.71,22.84-.86,34.26-1l4.28-.05c1.4,0,2.81-.1,4.23-.18l8.53-.51,17.07-1.11c11.37-.78,22.77-1.5,34.1-2.58,5.68-.71,11.4-.89,17.09-1.14s11.4-.43,17.08-1" transform="translate(0.63 -50.54)"/><path class="k" d="M505.5,307.79c-11.33,1.37-22.81,1.15-34.1,2.61-11.38,1.13-22.75,1.85-34.14,2.65-5.69.39-11.38.76-17.08,1.06l-8.55.44c-1.43.06-2.87.12-4.32.14H403c-11.4.09-22.82.14-34.16.74-1.41.08-2.82.18-4.2.33l-4.23.52a25.22,25.22,0,0,0-4,.79,12.22,12.22,0,0,0-3.5,1.86,24.93,24.93,0,0,0-3.19,2.58,2.72,2.72,0,0,0-.84,1.18c0,.05,0,.1.15.3l.13.13.08.06.35.2a21.4,21.4,0,0,0,3.87,1.26c1.35.33,2.73.59,4.11.79a41.45,41.45,0,0,0,4.17.41c1.37.07,2.81,0,4.27.1a57.28,57.28,0,0,1,8.6,1.09l8.4,1.63c2.8.53,5.63,1.1,8.41,1.8,5.57,1.38,11,3.2,16.4,5.08,2.69.95,5.39,1.84,8.08,2.84s5.34,2.06,8,3.14c5.27,2.2,10.51,4.47,15.66,6.94a42,42,0,0,1,3.81,2c1.19.79,2.42,1.48,3.68,2.15l3.78,2a25.2,25.2,0,0,1,3.68,2.17,26.11,26.11,0,0,0-3.75-2l-3.85-1.86c-1.28-.64-2.55-1.31-3.76-2.07s-2.52-1.29-3.81-1.88c-5.2-2.32-10.49-4.45-15.81-6.5-2.65-1-5.31-2-8-3s-5.4-1.8-8.11-2.7C402,335,396.59,333.24,391.07,332c-2.77-.65-5.53-1.17-8.35-1.66l-8.41-1.57a55.29,55.29,0,0,0-8.36-1c-1.4-.06-2.81,0-4.28-.09a42.1,42.1,0,0,1-4.35-.4c-1.44-.2-2.87-.46-4.29-.8a22.37,22.37,0,0,1-4.25-1.38,4.85,4.85,0,0,1-.58-.32l-.34-.27-.24-.25a2.3,2.3,0,0,1-.6-1.64,2.89,2.89,0,0,1,.56-1.45,6.91,6.91,0,0,1,.8-.94,28.7,28.7,0,0,1,3.43-2.81,14.2,14.2,0,0,1,4-2.14,27.11,27.11,0,0,1,4.35-.89l4.26-.55c1.45-.16,2.89-.28,4.33-.36,11.45-.54,22.85-.53,34.26-.55h4.28c1.4,0,2.82-.06,4.24-.11l8.54-.39,17.08-.87c11.38-.61,22.79-1.17,34.13-2.09,5.69-.62,11.42-.72,17.11-.89s11.4-.27,17.09-.75" transform="translate(0.63 -50.54)"/><path d="M0,382.13a49,49,0,0,1,4.49-2.83c1.53-.89,3.08-1.74,4.64-2.58q4.66-2.5,9.43-4.86c6.31-3.21,12.86-5.92,19.37-8.67q4.89-2,9.82-4c3.28-1.3,6.57-2.63,9.94-3.76,6.67-2.32,13.31-4.76,20.06-6.93s13.5-4.24,20.43-5.93a100.71,100.71,0,0,1,10.53-2c3.58-.39,7.08-.62,10.62-.86s7.07-.35,10.56-.66c1.76-.15,3.44-.39,5.22-.66s3.54-.42,5.31-.56a69.36,69.36,0,0,0,10.43-1.36,90.34,90.34,0,0,0,10.07-3.17l.08.19a79.89,79.89,0,0,1-9.92,3.86,69.11,69.11,0,0,1-10.51,1.86c-1.75.23-3.49.47-5.22.75s-3.52.6-5.28.8c-3.55.41-7.08.64-10.6.94s-7.06.52-10.51.92-6.9,1.07-10.33,1.85C91.79,346,85,348.08,78.23,350s-13.4,4.4-20.13,6.62c-3.34,1.08-6.63,2.35-9.93,3.61s-6.58,2.57-9.86,3.88c-6.57,2.63-13.13,5.21-19.49,8.28q-4.78,2.26-9.5,4.68c-1.58.81-3.14,1.63-4.68,2.49a49.3,49.3,0,0,0-4.52,2.73Z" transform="translate(0.63 -50.54)"/><path class="k" d="M.44,381.71a49.09,49.09,0,0,1,4.49-2.84q2.31-1.33,4.64-2.59,4.68-2.52,9.44-4.88c6.31-3.21,12.87-5.94,19.38-8.7q4.9-2,9.83-4c3.28-1.31,6.58-2.64,9.94-3.78,6.68-2.32,13.32-4.77,20.08-6.95s13.51-4.25,20.44-5.95a103.92,103.92,0,0,1,10.53-2c3.58-.39,7.09-.62,10.64-.86s7.07-.35,10.56-.66c1.76-.16,3.44-.4,5.23-.66s3.54-.43,5.31-.57a69.53,69.53,0,0,0,10.43-1.36,89.15,89.15,0,0,0,10.08-3.18l.08.18a76.54,76.54,0,0,1-9.93,3.88,68,68,0,0,1-10.52,1.87c-1.75.23-3.49.47-5.22.75s-3.52.6-5.28.8c-3.55.42-7.08.65-10.6.94s-7.07.53-10.52.94-6.91,1.07-10.34,1.85c-6.84,1.54-13.63,3.63-20.41,5.55s-13.41,4.42-20.14,6.65c-3.35,1.09-6.64,2.36-9.94,3.62s-6.59,2.58-9.87,3.9c-6.57,2.63-13.14,5.22-19.5,8.31-3.19,1.51-6.37,3.08-9.51,4.7q-2.36,1.2-4.68,2.49a49.4,49.4,0,0,0-4.52,2.74Z" transform="translate(0.63 -50.54)"/><path d="M153.37,316.25c-2.29-1.31-4.55-2.7-6.9-3.9a46.8,46.8,0,0,0-7.31-3L124,304.73a34.65,34.65,0,0,0-3.77-1c-1.28-.25-2.59-.45-3.9-.66s-2.62-.44-3.9-.62-2.61-.31-3.92-.41c-5.24-.39-10.55-.48-15.8-.45-5.26.2-10.55.59-15.84.77-1.32.05-2.65.09-4,.09s-2.61,0-3.93.14c-2.62.2-5.24.5-7.87.81l-3.93.49c-1.32.15-2.63.35-4,.37-2.6.12-5.24.52-7.88.72a33.07,33.07,0,0,1-4,.11l-4-.07-7.93-.16,7.93-.11,4,0a34.55,34.55,0,0,0,3.94-.21c2.63-.26,5.22-.69,7.9-.87,1.29,0,2.6-.26,3.91-.43L61,302.6c2.63-.37,5.25-.71,7.91-.91,1.32-.12,2.67-.16,4-.17s2.63,0,4-.11c5.27-.21,10.53-.63,15.84-.86,5.32,0,10.6.12,15.9.54,1.33.11,2.65.25,4,.44s2.61.44,3.92.65,2.61.42,3.93.7a33.4,33.4,0,0,1,3.85,1.13l15.08,4.91a48.59,48.59,0,0,1,7.28,3.2c2.33,1.27,4.54,2.73,6.77,4.13" transform="translate(0.63 -50.54)"/><path class="k" d="M153.5,315.79c-2.3-1.31-4.56-2.68-6.91-3.87a47.37,47.37,0,0,0-7.33-2.95l-15.18-4.6a32.56,32.56,0,0,0-3.78-1c-1.28-.25-2.59-.44-3.89-.65s-2.63-.43-3.91-.61-2.61-.3-3.92-.4c-5.25-.36-10.55-.43-15.8-.38-5.26.21-10.55.62-15.84.82-1.32.05-2.65.1-4,.1s-2.61,0-3.93.16c-2.62.2-5.24.51-7.86.84l-3.94.5a39.74,39.74,0,0,1-4,.38c-2.59.13-5.23.54-7.87.75a33.14,33.14,0,0,1-4,.12l-4-.06-7.93-.13,7.93-.13,4-.06a32.13,32.13,0,0,0,3.93-.22c2.63-.27,5.22-.71,7.91-.9a37.58,37.58,0,0,0,3.9-.45l3.92-.57c2.62-.37,5.25-.73,7.9-.94,1.32-.12,2.67-.16,4-.18s2.63-.06,4-.12c5.28-.23,10.53-.67,15.84-.91,5.33,0,10.61.08,15.91.48,1.32.1,2.65.24,4,.42s2.61.43,3.92.64,2.61.4,3.93.68a35.47,35.47,0,0,1,3.85,1.12l15.1,4.86a47.55,47.55,0,0,1,7.29,3.17c2.33,1.26,4.55,2.71,6.79,4.11" transform="translate(0.63 -50.54)"/><path class="k" d="M351.74,304l-.48-.36c3-4,9.14-9.12,15.05-14.05,2.49-2.08,5.92-5.08,9.23-8,4.64-4.07,9.44-8.27,11.78-10l20-15,.36.48-20,15c-2.32,1.75-7.11,5.94-11.75,10-3.31,2.9-6.73,5.91-9.24,8-5.88,4.91-12,10-14.95,14" transform="translate(0.63 -50.54)"/><line x1="0.13" y1="277.25" x2="515.13" y2="251.25"/><line class="l" x1="0.13" y1="277.25" x2="515.13" y2="251.25"/></g></g><path d="M159.24,314.19l22.12,75.67,10,33.51,9,30.37,1.22,3.86H139.9l-19.43-71.8-42,63.06-43-59.94q-6.22,21.94-13.59,53.84Q19.23,455,18.06,457.24c-.78,1.52-2.35,2.29-4.72,2.29q-4.46,0-4.46-3,0-.92,2.85-10.26L18,424.59l11-37.37,21.46-73,55.61,80.6Z" transform="translate(0.63 -50.54)"/><path d="M256.18,405.4v31.48q0,9.14,1.12,11.58,2.13,4.67,10.06,4.67a47.31,47.31,0,0,0,23.31-6.45,63.16,63.16,0,0,0,19.95-17.82,31.62,31.62,0,0,1,4-4.78,4.08,4.08,0,0,1,2.64-1,3.63,3.63,0,0,1,2.85,1.27,4.67,4.67,0,0,1,1.11,3.2q0,4.26-6.8,11.47a68.74,68.74,0,0,1-22.19,15,64.34,64.34,0,0,1-25.85,5.79,58.18,58.18,0,0,1-57.59-57.48,58.9,58.9,0,0,1,4.07-21.18A56.52,56.52,0,0,1,224,362.84,57.81,57.81,0,0,1,266.65,344a56.52,56.52,0,0,1,34,11.07q23.76,17.26,23.56,50.07H300.57l-30.47.1Zm26-6.71V369.1c-.13-6.35-.27-10.15-.4-11.4a7.07,7.07,0,0,0-1.42-3.5q-2.85-3.94-11.58-3.95-8.94,0-11.17,4.56-1.42,2.73-1.43,14.29v29.59l12.4.41Z" transform="translate(0.63 -50.54)"/><path d="M473.9,402.19q10.94-22.83,21.57-50.73a55.56,55.56,0,0,1,3.5-8.12,3.17,3.17,0,0,1,2.79-1.42,5.09,5.09,0,0,1,3.35,1.17,3.42,3.42,0,0,1,1.43,2.69,12,12,0,0,1-1.07,4.06q-1.07,2.64-7.56,16.86L485,394.83l-11.78,25.39-9.63,21.23-10.15,23.26L415,398.63q-3.85,6.39-10.25,18.17L379,464.71l-19-36.46-14.54-27.63-12.5-24-15.76-30h57.67l29.18,57q8.43-14.14,11.69-20.16T439.25,339Z" transform="translate(0.63 -50.54)"/></svg>