<?xml version="1.0" encoding="utf-8"?>
<!-- Generator: Adobe Illustrator 23.0.2, SVG Export Plug-In . SVG Version: 6.00 Build 0)  -->
<svg version="1.1" id="图层_1" xmlns="http://www.w3.org/2000/svg" xmlns:xlink="http://www.w3.org/1999/xlink" x="0px" y="0px"
	 viewBox="0 0 200 200" style="enable-background:new 0 0 200 200;" xml:space="preserve">
<style type="text/css">
	.st0{fill:#49C00E;}
</style>
<path class="st0" d="M100,12.5c-48.3,0-87.5,39.2-87.5,87.5s39.2,87.5,87.5,87.5c48.3,0,87.5-39.2,87.5-87.5
	C187.5,51.7,148.3,12.5,100,12.5z M147.1,80.2c-18.5,18.4-36.9,36.9-55.4,55.3c-2.4,2.4-4.7,2.3-7-0.1c-10.7-10.7-21.3-21.3-32-32
	c-2.4-2.4-2.4-4.7,0-7.1c2.8-2.8,5.6-5.5,8.3-8.3c2.8-2.9,5.3-2.8,8.1,0c5.3,5.4,10.6,10.7,16,16c1.1,1.1,2.2,2,3.2,3
	c8-7.9,15.9-15.6,23.7-23.3c6.3-6.3,12.6-12.6,18.8-19c2.8-2.8,5.3-3,8.1,0c2.7,2.9,5.4,5.7,8.2,8.4
	C149.4,75.6,149.6,77.8,147.1,80.2L147.1,80.2z"/>
</svg>
